# xmcd
#
# Track frame offsets:
#	150
#	2069
#	16468
#	31117
#	46626
#	62975
#	75936
#	86696
#	100266
#	116372
#	131518
#	145145
#	159424
#	175413
#	187890
#	201166
#	215010
#	230189
#	245120
#	267272
#
# Disc length: 3791 seconds
#
# Revision: 0
# Processed by: cddbd v1.5.2PL0 Copyright (c) Steve Scherf et al.
# Submitted via: audiograbber 1.83.01
#
DISCID=0d0ecd14
DTITLE=Das Beste aus Heimatklänge - Folge 1
DYEAR=2001
DGENRE=Volksmusik
TTITLE0=Erkennungsmelodie - Heimatklänge
TTITLE1=Astrid Harzbecker - Erstes Morgenrot
TTITLE2=Heino - Sierra Madre
TTITLE3=Oliver Thomas - Kleiner Schmetterling mach´s gut
TTITLE4=Dunja Raijter - Mein Freund der Baum
TTITLE5=Eberhard Hertel - Auf der Bank hinterm Haus
TTITLE6=Henry Arland and Söhne - Rosen der Liebe
TTITLE7=Bianca - Im Sturm der Nacht brach die Rose
TTITLE8=Oliver Thomas - Mein Sommernachtsgefühl
TTITLE9=Florian Silbereisen - Zaubermadl
TTITLE10=Rüdiger and Katharina Wolff - Wenn du gehst
TTITLE11=Astrid and Freddy Breck - Wenn die Gondeln Rosen tragen
TTITLE12=Jonny Hill - Solang´ dein Traum dich trägt
TTITLE13=Gunter Gabriel - Hier ist mein Land
TTITLE14=Kathrin and Peter - Mein Herz macht bumbudibum
TTITLE15=Karl Timmermann - Der Rhein hat 100 Brücken
TTITLE16=Oliver Thomas - Sonnenschein und Wolkenbruch
TTITLE17=Erberhard Hertel - Heimat ist ein kleines Wort
TTITLE18=Donato Plögert - Caruso
TTITLE19=Kristina Bach - Du mußt durch den Winter geh´n
EXTD=
EXTT0=
EXTT1=
EXTT2=
EXTT3=
EXTT4=
EXTT5=
EXTT6=
EXTT7=
EXTT8=
EXTT9=
EXTT10=
EXTT11=
EXTT12=
EXTT13=
EXTT14=
EXTT15=
EXTT16=
EXTT17=
EXTT18=
EXTT19=
PLAYORDER=
